<svg xmlns="http://www.w3.org/2000/svg" viewBox="0 0 120 120" role="img" aria-label="SmartEduPay secondary mark">
  <defs>
    <linearGradient id="secondaryGradient" x1="0%" y1="0%" x2="100%" y2="100%">
      <stop offset="0%" stop-color="#1d78e4"/>
      <stop offset="100%" stop-color="#4bc76f"/>
    </linearGradient>
  </defs>
  <circle cx="60" cy="60" r="58" fill="url(#secondaryGradient)"/>
  <path d="M38 42h20c8 0 16 7 16 15s-7 15-16 15H48v6H38V42zm10 10v16h12c4 0 6-3 6-6s-2-6-6-6H48z" fill="#fff"/>
  <path d="M74 58c0-6 4-10 10-10 6 0 10 4 10 10 0 6-4 10-10 10-5 0-10-4-10-10zm4 0c0 3 2 5 6 5 4 0 6-2 6-5 0-3-2-5-6-5-3 0-6 2-6 5z" fill="#fff" opacity=".6"/>
</svg>
