<svg xmlns="http://www.w3.org/2000/svg" viewBox="0 0 320 320" role="img" aria-label="SmartEduPay logo">
  <defs>
    <linearGradient id="ringGradient" x1="0%" y1="0%" x2="100%" y2="100%">
      <stop offset="0%" stop-color="#1d78e4"/>
      <stop offset="100%" stop-color="#4bc76f"/>
    </linearGradient>
    <linearGradient id="bookGradient" x1="0%" y1="0%" x2="0%" y2="100%">
      <stop offset="0%" stop-color="#1345a0"/>
      <stop offset="100%" stop-color="#0f86f1"/>
    </linearGradient>
    <linearGradient id="bookDetail" x1="0%" y1="0%" x2="100%" y2="0%">
      <stop offset="0%" stop-color="#33c576"/>
      <stop offset="100%" stop-color="#1d78e4"/>
    </linearGradient>
    <linearGradient id="arrowGradient" x1="0%" y1="0%" x2="1" y2="1">
      <stop offset="0%" stop-color="#35ffc8"/>
      <stop offset="1" stop-color="#0457c1"/>
    </linearGradient>
    <linearGradient id="brainGradient" x1="0%" y1="0%" x2="100%" y2="100%">
      <stop offset="0%" stop-color="#1d78e4"/>
      <stop offset="100%" stop-color="#23c6fc"/>
    </linearGradient>
  </defs>

  <circle cx="160" cy="160" r="110" fill="none" stroke="url(#ringGradient)" stroke-width="12" stroke-linecap="round"/>

  <g transform="translate(90 128)">
    <path d="M70 1c-32 0-58 26-58 58 0 32 26 58 58 58h20c32 0 58-26 58-58s-26-58-58-58H70z" fill="url(#brainGradient)" stroke="none"/>
    <path d="M70 1c-28 0-50 22-50 50s22 50 50 50h20c28 0 50-22 50-50s-22-50-50-50H70z" fill="none" stroke="#fff" stroke-width="4"/>
    <path d="M34 26h28M34 82h42M34 46h22M54 10v28" stroke="#fff" stroke-width="4" stroke-linecap="round"/>
    <circle cx="32" cy="32" r="6" fill="#fff"/>
    <circle cx="98" cy="20" r="6" fill="#fff"/>
    <circle cx="108" cy="60" r="6" fill="#fff"/>
    <circle cx="74" cy="88" r="6" fill="#fff"/>
    <circle cx="42" cy="70" r="6" fill="#fff"/>
    <circle cx="56" cy="108" r="6" fill="#fff"/>
  </g>

  <g transform="translate(80 194)">
    <rect x="0" y="0" width="160" height="20" rx="6" fill="#074d89"/>
    <rect x="4" y="12" width="152" height="16" rx="5" fill="url(#bookGradient)"/>
    <rect x="8" y="20" width="144" height="16" rx="5" fill="url(#bookDetail)"/>
    <rect x="0" y="32" width="160" height="10" rx="4" fill="#1aa061"/>
    <rect x="0" y="40" width="160" height="8" rx="4" fill="#13a151"/>
    <rect x="0" y="48" width="160" height="6" rx="4" fill="#0b8543"/>
    <rect x="0" y="30" width="10" height="8" rx="2" fill="#fff" opacity=".9"/>
  </g>

  <path d="M178 200l48-48c18-18 36-8 36 12 0 20-20 40-38 40l-24 28" fill="none" stroke="url(#arrowGradient)" stroke-width="14" stroke-linecap="round" stroke-linejoin="round"/>
  <path d="M214 166l32 4-4 32" fill="none" stroke="url(#arrowGradient)" stroke-width="14" stroke-linecap="round" stroke-linejoin="round"/>

  <circle cx="196" cy="132" r="8" fill="#35ffc8"/>
  <circle cx="234" cy="150" r="8" fill="#35ffc8"/>
</svg>
